# xmcd CD database file
#
# Track frame offsets:
#	150
#	26966
#	49045
#	67488
#	85303
#	111734
#	136317
#	154472
#	171121
#	191042
#
# Disc length: 2872 seconds
#
# Revision: 0
# Processed by: cddbd v1.5.2PL0 Copyright (c) Steve Scherf et al.
# Submitted via: CDex 1.70beta2
#
DISCID=9d0b360a
DTITLE=Jean-Marc Levier - Perfect Relaxation
DYEAR=1998
DGENRE=New Age
TTITLE0=Awakening
TTITLE1=Amazing Flight
TTITLE2=Inner Space
TTITLE3=Competing Oddities
TTITLE4=Calm Anticipation
TTITLE5=Source of brightness
TTITLE6=Smooth Reflexion
TTITLE7=Discovery
TTITLE8=Twilight Zone
TTITLE9=Animated Arrival
EXTD=YEAR: 1998
EXTT0=
EXTT1=
EXTT2=
EXTT3=
EXTT4=
EXTT5=
EXTT6=
EXTT7=
EXTT8=
EXTT9=
PLAYORDER=
